<?xml version="1.0" standalone="no"?><svg xmlns="http://www.w3.org/2000/svg" viewBox="0 0 1440 320"><path fill="#ffd700" fill-opacity="1" d="M0,96L21.8,128C43.6,160,87,224,131,234.7C174.5,245,218,203,262,160C305.5,117,349,75,393,64C436.4,53,480,75,524,112C567.3,149,611,203,655,197.3C698.2,192,742,128,785,96C829.1,64,873,64,916,80C960,96,1004,128,1047,122.7C1090.9,117,1135,75,1178,48C1221.8,21,1265,11,1309,42.7C1352.7,75,1396,149,1418,186.7L1440,224L1440,320L1418.2,320C1396.4,320,1353,320,1309,320C1265.5,320,1222,320,1178,320C1134.5,320,1091,320,1047,320C1003.6,320,960,320,916,320C872.7,320,829,320,785,320C741.8,320,698,320,655,320C610.9,320,567,320,524,320C480,320,436,320,393,320C349.1,320,305,320,262,320C218.2,320,175,320,131,320C87.3,320,44,320,22,320L0,320Z"></path></svg>